<?xml version="1.0" standalone="no"?>
<!DOCTYPE svg PUBLIC "-//W3C//DTD SVG 20010904//EN"
 "http://www.w3.org/TR/2001/REC-SVG-20010904/DTD/svg10.dtd">
<svg version="1.0" xmlns="http://www.w3.org/2000/svg"
 width="1058.000000pt" height="1058.000000pt" viewBox="0 0 1058.000000 1058.000000"
 preserveAspectRatio="xMidYMid meet">
<metadata>
Created by potrace 1.14, written by Peter Selinger 2001-2017
</metadata>
<g transform="translate(0.000000,1058.000000) scale(0.100000,-0.100000)"
fill="#000000" stroke="none">
<path d="M3530 10554 c-46 -16 -94 -48 -131 -87 -19 -20 -136 -252 -589 -1172
-92 -187 -252 -511 -355 -720 -224 -454 -480 -972 -695 -1410 -240 -487 -476
-967 -700 -1420 -111 -225 -271 -549 -355 -720 -84 -170 -255 -517 -380 -770
-125 -253 -248 -503 -273 -555 -44 -90 -47 -99 -46 -175 0 -62 5 -91 23 -128
91 -187 336 -229 483 -81 24 23 68 100 124 212 203 412 543 1100 692 1402 317
643 503 1021 687 1395 103 209 255 517 337 685 216 439 223 453 236 475 6 11
89 180 185 375 95 195 268 546 383 779 115 234 268 544 339 689 l130 264 202
-409 c111 -224 310 -628 443 -898 308 -623 460 -933 460 -937 0 -2 -260 -3
-578 -3 -459 -1 -585 -4 -617 -14 -120 -41 -203 -153 -206 -277 -2 -85 -39 -4
504 -1104 397 -806 559 -1135 747 -1515 106 -214 210 -426 232 -470 22 -44 45
-94 52 -110 l13 -30 -651 0 c-727 0 -702 2 -793 -72 -50 -40 -101 -137 -106
-203 -5 -59 16 -142 51 -194 33 -49 123 -113 172 -122 19 -4 393 -7 830 -8
l795 -1 119 -240 c166 -333 621 -1254 781 -1580 672 -1369 645 -1318 750
-1373 70 -37 188 -38 258 -2 90 45 115 84 314 488 102 207 261 530 353 717 92
187 251 509 352 715 102 206 262 530 355 720 94 190 255 516 358 725 103 209
254 515 335 680 81 165 248 503 370 750 122 248 284 576 360 730 76 154 242
492 370 750 360 728 324 647 324 740 0 63 -5 90 -23 126 -92 191 -342 232
-484 80 -28 -30 -68 -96 -114 -191 -39 -80 -176 -356 -303 -615 -380 -769
-836 -1694 -1085 -2200 -211 -428 -474 -962 -720 -1460 -114 -231 -263 -532
-330 -670 -68 -137 -221 -449 -342 -693 l-218 -443 -180 363 c-98 200 -307
622 -463 938 -392 794 -450 913 -454 929 -3 13 76 15 578 16 l580 0 67 33 c66
33 105 71 143 142 15 27 19 56 19 125 l-1 90 -156 315 c-217 438 -565 1143
-723 1465 -73 149 -251 509 -395 800 -144 292 -262 534 -263 540 -1 6 223 10
643 11 492 0 657 3 691 13 91 25 188 128 206 218 23 115 -21 236 -110 304 -87
65 -53 63 -927 65 -437 1 -798 2 -802 3 -4 1 -78 144 -164 319 -86 174 -249
504 -362 732 -112 228 -275 559 -362 735 -528 1073 -649 1312 -678 1342 -78
81 -210 113 -312 77z m134 -316 c13 -29 149 -305 301 -613 153 -308 348 -704
435 -880 266 -540 544 -1103 618 -1252 39 -78 68 -143 66 -146 -22 -22 -53 29
-219 366 -98 199 -302 612 -453 917 -151 305 -325 659 -387 785 -147 300 -395
798 -400 803 -1 2 -23 -39 -48 -90 -25 -51 -143 -291 -262 -533 -120 -242
-288 -584 -375 -760 -87 -176 -249 -504 -360 -730 -111 -225 -273 -554 -360
-730 -87 -176 -237 -482 -335 -680 -167 -339 -276 -560 -690 -1400 -95 -192
-266 -539 -380 -770 -114 -231 -273 -554 -353 -717 -110 -225 -151 -298 -164
-298 -10 0 -18 4 -18 9 0 5 95 202 211 438 116 235 280 568 364 738 84 171
235 477 335 680 100 204 256 519 345 700 89 182 249 506 355 720 106 215 261
530 345 700 84 171 244 495 355 720 111 226 264 536 340 690 235 478 620 1257
653 1323 17 34 37 62 44 62 7 0 23 -24 37 -52z m1216 -3188 c5 -8 7 -17 5 -20
-2 -3 -278 -5 -614 -5 -336 0 -611 0 -611 -1 0 -1 118 -239 261 -530 144 -291
330 -668 414 -839 84 -170 250 -508 370 -750 508 -1029 535 -1085 521 -1085
-25 0 -55 48 -161 264 -67 138 -225 458 -350 711 -125 253 -300 609 -390 790
-89 182 -254 515 -365 740 -111 226 -236 477 -276 560 -76 153 -82 171 -63
177 7 2 290 4 631 3 530 0 620 -2 628 -15z m339 10 c27 -14 35 -40 10 -35 -28
6 -39 14 -39 31 0 17 5 17 29 4z m1752 -7 c8 -8 7 -13 -7 -20 -11 -5 -315 -9
-705 -8 -560 0 -689 3 -703 14 -8 7 -14 16 -12 20 3 4 322 7 710 6 520 0 708
-3 717 -12z m3329 -3 c0 -5 -97 -205 -216 -447 -119 -241 -283 -573 -364 -738
-81 -165 -234 -475 -340 -690 -106 -214 -254 -516 -330 -670 -76 -154 -235
-478 -355 -720 -120 -242 -284 -575 -365 -740 -81 -165 -243 -493 -360 -730
-117 -236 -274 -556 -350 -710 -76 -154 -240 -487 -364 -740 -125 -253 -239
-485 -254 -515 -25 -52 -39 -69 -53 -70 -4 0 -29 46 -57 103 -28 56 -168 341
-312 632 -144 292 -333 674 -420 850 -235 477 -487 988 -584 1184 -47 96 -86
175 -86 176 0 1 9 1 21 0 26 -2 17 15 285 -530 334 -679 490 -995 774 -1570
144 -291 289 -585 322 -653 33 -68 61 -122 63 -120 5 5 245 487 350 703 51
105 195 397 320 650 125 253 294 595 375 760 81 165 226 460 323 655 163 331
270 549 729 1480 99 201 254 514 343 695 89 182 241 490 337 685 97 195 257
520 356 722 142 287 185 366 197 362 8 -3 15 -10 15 -14z m-5224 -400 c26 -52
153 -309 282 -570 129 -261 322 -653 429 -870 108 -217 266 -539 353 -715 86
-176 196 -397 243 -492 55 -109 82 -173 74 -175 -17 -6 -905 -4 -909 2 -2 3
-20 39 -40 80 -20 41 -155 314 -299 605 -322 652 -554 1124 -754 1530 -84 171
-196 397 -249 503 -53 106 -96 194 -96 196 0 1 207 2 459 2 l460 0 47 -96z
m412 -112 c149 -301 724 -1465 1132 -2293 87 -176 201 -407 254 -514 92 -185
105 -219 89 -222 -5 -1 -288 -2 -630 -3 -546 -1 -623 1 -629 14 -3 8 -5 17 -5
20 1 3 272 6 604 6 331 1 605 2 609 3 4 0 -25 65 -64 144 -151 305 -427 866
-564 1147 -79 162 -149 302 -154 310 -6 8 -14 24 -19 35 -5 11 -109 223 -231
470 -454 918 -530 1077 -524 1086 14 24 35 -8 132 -203z m-460 -3013 c3 -20
-2 -20 -702 -20 -387 0 -708 3 -711 7 -4 4 -5 13 -2 20 4 11 141 13 708 13
697 0 704 0 707 -20z m354 7 c8 -8 9 -15 2 -22 -11 -11 -57 16 -49 30 7 11 32
7 47 -8z"/>
<path d="M8565 7343 c-196 -37 -305 -257 -215 -434 82 -159 296 -212 438 -109
191 138 161 427 -54 521 -42 19 -126 30 -169 22z"/>
<path d="M1887 3818 c-255 -54 -321 -384 -108 -539 145 -107 365 -45 444 123
31 67 29 177 -4 248 -60 127 -198 197 -332 168z"/>
</g>
</svg>
