<?xml version="1.0" encoding="UTF-8" standalone="no"?>
<svg
   xmlns:dc="http://purl.org/dc/elements/1.1/"
   xmlns:cc="http://creativecommons.org/ns#"
   xmlns:rdf="http://www.w3.org/1999/02/22-rdf-syntax-ns#"
   xmlns:svg="http://www.w3.org/2000/svg"
   xmlns="http://www.w3.org/2000/svg"
   width="1058.3844"
   height="1056.9454"
   viewBox="0 0 280.03087 279.65015"
   version="1.1"
   id="svg8">
  <defs
     id="defs2" />
  <metadata
     id="metadata5">
    <rdf:RDF>
      <cc:Work
         rdf:about="">
        <dc:format>image/svg+xml</dc:format>
        <dc:type
           rdf:resource="http://purl.org/dc/dcmitype/StillImage" />
        <dc:title></dc:title>
      </cc:Work>
    </rdf:RDF>
  </metadata>
  <g
     id="layer1"
     transform="translate(489.60209,15.725908)">
    <g
       id="g1089"
       transform="translate(-65.850227,-0.6532107)"
       style="fill:#ffffff">
      <path
         id="path921"
         style="color:#000000;font-style:normal;font-variant:normal;font-weight:normal;font-stretch:normal;font-size:medium;line-height:normal;font-family:sans-serif;font-variant-ligatures:normal;font-variant-position:normal;font-variant-caps:normal;font-variant-numeric:normal;font-variant-alternates:normal;font-variant-east-asian:normal;font-feature-settings:normal;font-variation-settings:normal;text-indent:0;text-align:start;text-decoration:none;text-decoration-line:none;text-decoration-style:solid;text-decoration-color:#000000;letter-spacing:normal;word-spacing:normal;text-transform:none;writing-mode:lr-tb;direction:ltr;text-orientation:mixed;dominant-baseline:auto;baseline-shift:baseline;text-anchor:start;white-space:normal;shape-padding:0;shape-margin:0;inline-size:0;clip-rule:nonzero;display:inline;overflow:visible;visibility:visible;isolation:auto;mix-blend-mode:normal;color-interpolation:sRGB;color-interpolation-filters:linearRGB;solid-color:#000000;solid-opacity:1;vector-effect:none;fill:#ffffff;fill-opacity:1;fill-rule:nonzero;stroke:none;stroke-width:1;stroke-linecap:round;stroke-linejoin:round;stroke-miterlimit:4;stroke-dasharray:none;stroke-dashoffset:0;stroke-opacity:1;color-rendering:auto;image-rendering:auto;shape-rendering:auto;text-rendering:auto;enable-background:accumulate;stop-color:#000000"
         d="m -327.85801,-15.072465 a 7.9382936,7.9382936 0 0 0 -7.06004,4.426087 l -88.01531,178.466628 a 7.9374999,7.9374999 0 0 0 3.60701,10.6288 7.9374999,7.9374999 0 0 0 10.62935,-3.60701 l 80.90201,-164.039082 75.31635,152.591722 h -75.31994 a 7.9374999,7.9374999 0 0 0 -7.9375,7.9375 7.9374999,7.9374999 0 0 0 7.9375,7.9375 h 88.08763 a 7.9382936,7.9382936 0 0 0 7.1174,-11.4515 l -88.08817,-178.468692 a 7.9382936,7.9382936 0 0 0 -7.05487,-4.421953 7.9382936,7.9382936 0 0 0 -0.12142,0 z m 0.0356,7.4062665 a 0.52921955,0.52921955 0 0 1 0.49816,0.2950723 L -239.2366,171.09756 a 0.52921955,0.52921955 0 0 1 -0.47439,0.76172 h -88.08763 a 0.52916663,0.52916663 0 0 1 -0.5297,-0.5271 0.52916663,0.52916663 0 0 1 0.5297,-0.52969 h 87.23807 L -327.79858,-5.9396891 -415.34003,171.5642 a 0.52916663,0.52916663 0 0 1 -0.709,0.24237 0.52916663,0.52916663 0 0 1 -0.23977,-0.70901 l 88.01529,-178.4686862 a 0.52921955,0.52921955 0 0 1 0.45114,-0.2950723 z" />
      <path
         id="path923"
         style="color:#000000;font-style:normal;font-variant:normal;font-weight:normal;font-stretch:normal;font-size:medium;line-height:normal;font-family:sans-serif;font-variant-ligatures:normal;font-variant-position:normal;font-variant-caps:normal;font-variant-numeric:normal;font-variant-alternates:normal;font-variant-east-asian:normal;font-feature-settings:normal;font-variation-settings:normal;text-indent:0;text-align:start;text-decoration:none;text-decoration-line:none;text-decoration-style:solid;text-decoration-color:#000000;letter-spacing:normal;word-spacing:normal;text-transform:none;writing-mode:lr-tb;direction:ltr;text-orientation:mixed;dominant-baseline:auto;baseline-shift:baseline;text-anchor:start;white-space:normal;shape-padding:0;shape-margin:0;inline-size:0;clip-rule:nonzero;display:inline;overflow:visible;visibility:visible;isolation:auto;mix-blend-mode:normal;color-interpolation:sRGB;color-interpolation-filters:linearRGB;solid-color:#000000;solid-opacity:1;vector-effect:none;fill:#ffffff;fill-opacity:1;fill-rule:nonzero;stroke:none;stroke-width:1;stroke-linecap:round;stroke-linejoin:round;stroke-miterlimit:4;stroke-dasharray:none;stroke-dashoffset:0;stroke-opacity:1;color-rendering:auto;image-rendering:auto;shape-rendering:auto;text-rendering:auto;enable-background:accumulate;stop-color:#000000"
         d="m -151.6786,70.236021 a 7.9374999,7.9374999 0 0 0 -7.09879,4.426087 L -239.67787,238.70326 -314.99421,86.111539 h 75.3184 a 7.9374999,7.9374999 0 0 0 7.9375,-7.9375 7.9374999,7.9374999 0 0 0 -7.9375,-7.9375 h -88.08764 a 7.9382936,7.9382936 0 0 0 -7.1174,11.450979 l 88.08765,178.466622 a 7.9382936,7.9382936 0 0 0 14.23634,-0.002 l 88.01788,-178.469212 a 7.9374999,7.9374999 0 0 0 -3.6096,-10.628809 7.9374999,7.9374999 0 0 0 -3.53002,-0.818555 z m -176.08485,7.408333 h 88.08764 a 0.52916663,0.52916663 0 0 1 0.52917,0.529685 0.52916663,0.52916663 0 0 1 -0.52917,0.529167 h -87.23653 l 87.23653,176.742184 87.54298,-177.505962 a 0.52916663,0.52916663 0 0 1 0.709,-0.240295 0.52916663,0.52916663 0 0 1 0.2403,0.708999 l -88.01789,178.466628 a 0.52921955,0.52921955 0 0 1 -0.94878,0 L -328.23835,78.408132 a 0.52921955,0.52921955 0 0 1 0.4749,-0.763778 z" />
      <g
         id="circle925"
         style="fill:#ffffff">
        <path
           style="color:#000000;font-style:normal;font-variant:normal;font-weight:normal;font-stretch:normal;font-size:medium;line-height:normal;font-family:sans-serif;font-variant-ligatures:normal;font-variant-position:normal;font-variant-caps:normal;font-variant-numeric:normal;font-variant-alternates:normal;font-variant-east-asian:normal;font-feature-settings:normal;font-variation-settings:normal;text-indent:0;text-align:start;text-decoration:none;text-decoration-line:none;text-decoration-style:solid;text-decoration-color:#000000;letter-spacing:normal;word-spacing:normal;text-transform:none;writing-mode:lr-tb;direction:ltr;text-orientation:mixed;dominant-baseline:auto;baseline-shift:baseline;text-anchor:start;white-space:normal;shape-padding:0;shape-margin:0;inline-size:0;clip-rule:nonzero;display:inline;overflow:visible;visibility:visible;isolation:auto;mix-blend-mode:normal;color-interpolation:sRGB;color-interpolation-filters:linearRGB;solid-color:#000000;solid-opacity:1;vector-effect:none;fill:#ffffff;fill-opacity:1;fill-rule:nonzero;stroke:none;stroke-width:0;stroke-linecap:round;stroke-linejoin:round;stroke-miterlimit:4;stroke-dasharray:none;stroke-dashoffset:0;stroke-opacity:1;color-rendering:auto;image-rendering:auto;shape-rendering:auto;text-rendering:auto;enable-background:accumulate;stop-color:#000000;stop-opacity:1"
           d="m -364.23047,171.33118 c 0,4.38376 -3.55374,7.9375 -7.9375,7.9375 -4.38376,0 -7.9375,-3.55374 -7.9375,-7.9375 0,-4.38376 3.55374,-7.9375 7.9375,-7.9375 4.38376,0 7.9375,3.55374 7.9375,7.9375 z"
           id="path996" />
        <path
           style="color:#000000;font-style:normal;font-variant:normal;font-weight:normal;font-stretch:normal;font-size:medium;line-height:normal;font-family:sans-serif;font-variant-ligatures:normal;font-variant-position:normal;font-variant-caps:normal;font-variant-numeric:normal;font-variant-alternates:normal;font-variant-east-asian:normal;font-feature-settings:normal;font-variation-settings:normal;text-indent:0;text-align:start;text-decoration:none;text-decoration-line:none;text-decoration-style:solid;text-decoration-color:#000000;letter-spacing:normal;word-spacing:normal;text-transform:none;writing-mode:lr-tb;direction:ltr;text-orientation:mixed;dominant-baseline:auto;baseline-shift:baseline;text-anchor:start;white-space:normal;shape-padding:0;shape-margin:0;inline-size:0;clip-rule:nonzero;display:inline;overflow:visible;visibility:visible;isolation:auto;mix-blend-mode:normal;color-interpolation:sRGB;color-interpolation-filters:linearRGB;solid-color:#000000;solid-opacity:1;vector-effect:none;fill:#ffffff;fill-opacity:1;fill-rule:nonzero;stroke:none;stroke-linecap:round;stroke-linejoin:round;stroke-miterlimit:4;stroke-dasharray:none;stroke-dashoffset:0;stroke-opacity:1;color-rendering:auto;image-rendering:auto;shape-rendering:auto;text-rendering:auto;enable-background:accumulate;stop-color:#000000;stop-opacity:1"
           d="m -372.16797,163.37695 c -4.39241,0 -7.95312,3.56267 -7.95312,7.95508 0,4.39241 3.56071,7.95313 7.95312,7.95313 4.39241,0 7.95313,-3.56072 7.95313,-7.95313 0,-4.39241 -3.56072,-7.95508 -7.95313,-7.95508 z m 0,0.0332 c 4.37511,0 7.92188,3.54676 7.92188,7.92187 0,4.37511 -3.54677,7.91992 -7.92188,7.91992 -4.37511,0 -7.92187,-3.54481 -7.92187,-7.91992 0,-4.37511 3.54676,-7.92187 7.92187,-7.92187 z"
           id="path998" />
      </g>
      <g
         id="g1079"
         transform="translate(176.50188,-93.157534)"
         style="fill:#ffffff">
        <path
           style="color:#000000;font-style:normal;font-variant:normal;font-weight:normal;font-stretch:normal;font-size:medium;line-height:normal;font-family:sans-serif;font-variant-ligatures:normal;font-variant-position:normal;font-variant-caps:normal;font-variant-numeric:normal;font-variant-alternates:normal;font-variant-east-asian:normal;font-feature-settings:normal;font-variation-settings:normal;text-indent:0;text-align:start;text-decoration:none;text-decoration-line:none;text-decoration-style:solid;text-decoration-color:#000000;letter-spacing:normal;word-spacing:normal;text-transform:none;writing-mode:lr-tb;direction:ltr;text-orientation:mixed;dominant-baseline:auto;baseline-shift:baseline;text-anchor:start;white-space:normal;shape-padding:0;shape-margin:0;inline-size:0;clip-rule:nonzero;display:inline;overflow:visible;visibility:visible;isolation:auto;mix-blend-mode:normal;color-interpolation:sRGB;color-interpolation-filters:linearRGB;solid-color:#000000;solid-opacity:1;vector-effect:none;fill:#ffffff;fill-opacity:1;fill-rule:nonzero;stroke:none;stroke-width:0;stroke-linecap:round;stroke-linejoin:round;stroke-miterlimit:4;stroke-dasharray:none;stroke-dashoffset:0;stroke-opacity:1;color-rendering:auto;image-rendering:auto;shape-rendering:auto;text-rendering:auto;enable-background:accumulate;stop-color:#000000;stop-opacity:1"
           d="m -364.23047,171.33118 c 0,4.38376 -3.55374,7.9375 -7.9375,7.9375 -4.38376,0 -7.9375,-3.55374 -7.9375,-7.9375 0,-4.38376 3.55374,-7.9375 7.9375,-7.9375 4.38376,0 7.9375,3.55374 7.9375,7.9375 z"
           id="path1075" />
        <path
           style="color:#000000;font-style:normal;font-variant:normal;font-weight:normal;font-stretch:normal;font-size:medium;line-height:normal;font-family:sans-serif;font-variant-ligatures:normal;font-variant-position:normal;font-variant-caps:normal;font-variant-numeric:normal;font-variant-alternates:normal;font-variant-east-asian:normal;font-feature-settings:normal;font-variation-settings:normal;text-indent:0;text-align:start;text-decoration:none;text-decoration-line:none;text-decoration-style:solid;text-decoration-color:#000000;letter-spacing:normal;word-spacing:normal;text-transform:none;writing-mode:lr-tb;direction:ltr;text-orientation:mixed;dominant-baseline:auto;baseline-shift:baseline;text-anchor:start;white-space:normal;shape-padding:0;shape-margin:0;inline-size:0;clip-rule:nonzero;display:inline;overflow:visible;visibility:visible;isolation:auto;mix-blend-mode:normal;color-interpolation:sRGB;color-interpolation-filters:linearRGB;solid-color:#000000;solid-opacity:1;vector-effect:none;fill:#ffffff;fill-opacity:1;fill-rule:nonzero;stroke:none;stroke-linecap:round;stroke-linejoin:round;stroke-miterlimit:4;stroke-dasharray:none;stroke-dashoffset:0;stroke-opacity:1;color-rendering:auto;image-rendering:auto;shape-rendering:auto;text-rendering:auto;enable-background:accumulate;stop-color:#000000;stop-opacity:1"
           d="m -372.16797,163.37695 c -4.39241,0 -7.95312,3.56267 -7.95312,7.95508 0,4.39241 3.56071,7.95313 7.95312,7.95313 4.39241,0 7.95313,-3.56072 7.95313,-7.95313 0,-4.39241 -3.56072,-7.95508 -7.95313,-7.95508 z m 0,0.0332 c 4.37511,0 7.92188,3.54676 7.92188,7.92187 0,4.37511 -3.54677,7.91992 -7.92188,7.91992 -4.37511,0 -7.92187,-3.54481 -7.92187,-7.91992 0,-4.37511 3.54676,-7.92187 7.92187,-7.92187 z"
           id="path1077" />
      </g>
    </g>
  </g>
</svg>
